<?xml version="1.0" standalone="no"?>
<!DOCTYPE svg PUBLIC "-//W3C//DTD SVG 20010904//EN"
 "http://www.w3.org/TR/2001/REC-SVG-20010904/DTD/svg10.dtd">
<svg version="1.0" xmlns="http://www.w3.org/2000/svg"
 width="1200.000000pt" height="1200.000000pt" viewBox="0 0 1200.000000 1200.000000"
 preserveAspectRatio="xMidYMid meet">

<g transform="translate(0.000000,1200.000000) scale(0.100000,-0.100000)"
fill="#000000" stroke="none">
<path d="M0 6000 l0 -6000 6000 0 6000 0 0 6000 0 6000 -6000 0 -6000 0 0
-6000z m6080 4006 c0 -2 -7 -6 -15 -10 -8 -3 -15 -1 -15 4 0 6 7 10 15 10 8 0
15 -2 15 -4z m-40 -32 c0 -19 -4 -25 -15 -20 -18 7 -19 -7 -3 -33 16 -27 -1
-45 -71 -78 -31 -14 -116 -55 -190 -90 -166 -80 -168 -81 -163 -39 3 24 11 36
30 43 l27 11 -27 1 c-15 1 -30 -3 -33 -9 -3 -5 -23 -10 -43 -9 -37 1 -37 1 -7
9 17 4 52 17 78 30 26 12 51 20 54 16 3 -3 13 0 22 6 13 10 14 10 4 -2 -21
-23 -15 -35 7 -15 15 14 20 15 20 4 0 -11 2 -11 10 1 7 11 10 11 10 2 0 -18
62 -12 68 7 3 10 -3 11 -28 6 -23 -5 -30 -4 -26 4 9 14 76 14 76 0 0 -5 5 -7
11 -3 8 4 8 8 0 13 -6 4 -3 11 9 19 12 7 20 8 20 2 0 -26 28 -6 34 23 4 24 14
36 34 44 l27 11 -26 1 c-20 1 -29 -7 -43 -35 -9 -20 -20 -34 -23 -30 -3 3 -13
1 -20 -6 -11 -9 -16 -9 -23 2 -5 8 -12 11 -17 7 -4 -5 -2 -11 4 -15 7 -4 -13
-8 -44 -8 l-56 0 56 26 c31 14 57 31 57 38 0 6 9 12 19 12 23 0 155 59 159 71
8 19 22 8 22 -17z m94 5 c20 -12 36 -25 36 -30 0 -6 -17 2 -37 18 -21 15 -40
28 -42 30 -2 2 -2 3 2 3 3 0 22 -9 41 -21z m-77 -51 c-3 -7 -5 -2 -5 12 0 14
2 19 5 13 2 -7 2 -19 0 -25z m178 -8 c13 -5 14 -9 5 -9 -8 0 -24 4 -35 9 -13
5 -14 9 -5 9 8 0 24 -4 35 -9z m-179 -417 c-3 -225 -7 -646 -8 -937 l-3 -529
65 -23 c209 -73 420 -147 450 -158 l35 -13 3 -161 c2 -120 6 -162 15 -162 12
0 97 40 107 50 3 3 46 26 95 50 50 24 92 47 95 50 3 3 21 14 40 24 19 11 52
30 73 43 l37 23 -2 827 -3 827 -30 16 c-16 8 -31 18 -33 23 -2 4 -10 7 -18 7
-8 0 -14 3 -14 8 0 4 -22 18 -50 31 -27 13 -50 28 -50 32 0 5 -4 9 -10 9 -5 0
-61 32 -124 70 -62 39 -118 70 -125 70 -6 0 -11 5 -11 10 0 6 -5 10 -11 10 -6
0 -25 11 -43 25 -18 14 -38 25 -43 25 -6 0 -16 7 -23 15 -19 23 -8 19 65 -26
63 -38 110 -66 160 -93 11 -6 31 -18 45 -27 74 -47 202 -119 210 -119 6 0 10
-4 10 -9 0 -4 27 -23 60 -40 l60 -32 0 -820 c0 -450 3 -819 8 -819 4 0 23 10
42 22 19 11 99 59 178 105 l142 83 163 -106 c89 -59 171 -112 182 -118 11 -6
44 -27 72 -46 l53 -35 0 -62 c0 -35 -2 -63 -5 -63 -6 0 -234 146 -347 221 -48
33 -90 59 -93 59 -3 0 -5 -197 -5 -438 l0 -438 23 -31 c22 -31 98 -128 230
-295 63 -79 72 -87 96 -82 54 13 261 73 270 78 5 4 28 -20 50 -51 58 -82 74
-105 89 -119 6 -7 12 -17 12 -21 0 -5 8 -18 18 -29 10 -10 36 -46 59 -79 23
-33 50 -69 61 -81 11 -11 23 -31 27 -45 l7 -24 -18 25 c-10 14 -24 32 -31 40
-6 8 -33 44 -60 80 -26 36 -51 67 -55 68 -5 2 -8 8 -8 14 0 5 -6 15 -12 23
-29 30 -48 56 -48 65 0 6 -4 10 -10 10 -5 0 -10 7 -10 15 0 8 -4 15 -8 15 -4
0 -16 14 -25 30 -21 35 -37 38 -55 10 -7 -12 -8 -20 -2 -20 5 0 10 -5 10 -10
0 -6 21 -39 48 -73 26 -34 58 -78 72 -97 13 -19 28 -39 32 -45 51 -65 198
-265 198 -270 0 -3 9 -15 19 -27 11 -11 59 -74 108 -139 83 -112 113 -139 113
-103 0 22 -16 50 -67 116 -23 31 -43 61 -43 67 0 5 -6 14 -14 18 -7 4 -26 28
-41 53 -15 25 -41 62 -58 83 -16 21 -26 41 -22 45 3 4 11 -1 16 -10 5 -9 16
-24 24 -32 8 -8 15 -18 15 -21 0 -4 15 -26 32 -49 18 -22 36 -45 40 -51 4 -5
20 -26 36 -45 87 -108 102 -136 102 -192 l0 -55 -72 -12 c-40 -6 -97 -16 -125
-23 l-53 -11 0 -519 0 -518 35 0 35 0 0 -90 c0 -107 19 -96 -195 -104 -216 -9
-789 -34 -1005 -46 -102 -5 -327 -14 -500 -20 -173 -6 -382 -15 -465 -21 -179
-12 -388 -23 -825 -44 -179 -8 -410 -19 -513 -24 -104 -5 -203 -8 -220 -6 -18
3 -86 9 -152 15 -66 7 -172 18 -235 25 -63 8 -167 19 -230 25 -63 6 -236 24
-385 40 -148 17 -295 32 -325 35 -115 12 -110 8 -110 80 0 62 1 64 28 67 l27
3 3 354 c2 228 -1 358 -8 365 -6 6 -17 6 -32 -1 -13 -6 -48 -18 -78 -28 -30
-10 -64 -23 -76 -31 -12 -7 -37 -15 -56 -19 -31 -6 -35 -4 -53 29 -19 35 -19
36 0 54 11 9 42 33 70 52 51 37 69 50 113 87 15 13 32 23 37 23 6 0 17 9 25
20 8 11 20 20 27 20 7 0 13 5 13 10 0 6 7 10 15 10 8 0 15 3 15 8 1 4 23 23
51 42 61 44 270 196 285 209 6 5 44 32 85 62 40 29 80 58 87 66 16 15 32 17
32 3 0 -5 -26 -27 -57 -49 -75 -51 -279 -201 -319 -235 -18 -14 -37 -26 -42
-26 -6 0 -15 -6 -19 -13 -7 -11 -72 -59 -111 -82 -63 -37 -315 -235 -300 -235
10 0 109 38 115 43 3 4 17 7 30 7 13 0 23 3 23 8 0 8 32 23 96 46 23 8 50 19
60 25 11 6 57 26 104 45 103 42 208 86 275 116 28 12 59 26 70 31 11 5 51 20
90 35 38 14 81 32 95 39 14 7 61 28 105 45 44 17 94 37 110 45 17 7 95 40 175
74 265 110 313 130 331 143 42 31 296 228 314 245 11 10 36 29 55 43 19 13 37
27 40 30 3 3 32 25 65 50 33 25 62 47 65 50 3 3 32 25 65 50 33 25 94 72 135
105 41 34 104 83 140 110 36 27 67 52 70 55 3 3 21 17 42 32 20 15 42 34 50
41 7 7 29 24 48 37 19 13 37 27 40 30 3 3 32 25 65 50 33 25 62 47 65 50 3 3
32 25 65 50 33 25 69 52 80 61 59 49 137 110 195 154 36 27 67 52 70 55 3 3
21 17 42 32 20 15 42 34 50 41 7 7 29 24 48 37 19 14 42 30 50 37 207 166 241
189 250 172 7 -13 65 -86 180 -229 15 -19 58 -73 95 -120 37 -47 80 -101 95
-120 15 -19 67 -84 115 -145 167 -212 197 -248 208 -253 4 -2 7 -8 7 -14 0 -7
86 -120 132 -173 5 -5 12 -5 20 3 11 11 -12 50 -55 94 -7 7 -24 29 -37 48 -13
19 -32 42 -42 51 -10 9 -18 19 -18 22 0 3 -64 86 -142 184 -79 99 -154 194
-168 212 -14 18 -85 110 -159 205 -74 94 -152 195 -175 223 -23 29 -47 53 -55
53 -7 0 -76 -33 -153 -72 -93 -48 -144 -80 -151 -95 -6 -13 -16 -23 -24 -23
-7 0 -13 -3 -13 -8 0 -4 -18 -18 -40 -32 -22 -14 -40 -28 -40 -32 0 -5 -7 -8
-15 -8 -8 0 -15 -4 -15 -8 0 -4 -13 -16 -30 -25 -43 -26 -318 -234 -349 -265
-8 -7 -24 -18 -35 -23 -12 -5 -37 -19 -56 -30 -36 -22 -162 -89 -167 -89 -2 0
-3 32 -3 70 0 45 -4 70 -11 70 -6 0 -75 -33 -153 -74 -240 -125 -480 -249
-503 -260 -44 -21 -33 -27 85 -47 39 -7 72 -15 72 -19 0 -4 -15 -19 -32 -33
-18 -14 -46 -38 -63 -52 -16 -15 -46 -39 -65 -54 -19 -14 -41 -31 -48 -38 -7
-7 -34 -29 -60 -50 -26 -21 -64 -53 -84 -72 -21 -19 -48 -41 -60 -49 -19 -13
-150 -124 -168 -142 -3 -3 -21 -17 -40 -31 -19 -15 -46 -37 -60 -49 -66 -59
-159 -128 -195 -144 -88 -39 -124 -56 -210 -96 -49 -23 -119 -56 -153 -72 -35
-16 -65 -28 -67 -26 -3 3 -14 138 -15 173 0 6 3 26 6 46 7 43 3 46 -79 65
-132 31 -134 32 -161 78 -30 51 -31 66 -11 109 8 18 24 56 35 86 12 30 33 80
46 110 30 67 34 74 74 171 17 41 40 93 49 115 10 22 22 51 26 65 4 14 14 34
21 45 8 11 14 30 14 42 0 13 4 23 9 23 5 0 11 9 14 19 3 13 12 18 23 16 11 -2
60 -11 109 -20 50 -9 117 -23 150 -30 33 -8 123 -26 200 -40 77 -14 180 -35
229 -46 49 -11 95 -18 102 -15 11 4 14 165 14 952 0 521 2 950 5 952 3 3 5
-359 6 -804 0 -445 1 -876 2 -959 l2 -149 75 -18 c111 -26 142 -23 215 17 35
19 122 65 192 101 70 37 171 89 223 117 52 28 125 66 163 86 l67 36 -2 665 -3
664 -25 13 c-64 33 -138 63 -153 63 -10 0 -17 4 -17 9 0 5 -11 12 -24 15 -14
3 -58 21 -98 40 -40 18 -98 44 -128 56 -77 31 -86 35 -162 69 -37 17 -75 32
-85 32 -16 1 -16 2 -1 6 9 2 42 -7 73 -21 30 -14 59 -26 63 -26 4 -1 25 -9 47
-20 22 -11 48 -19 57 -20 9 0 18 -3 20 -8 2 -4 35 -20 73 -36 39 -16 93 -39
120 -51 28 -12 94 -39 148 -60 53 -20 99 -40 102 -44 2 -4 5 -112 6 -240 0
-127 3 -240 6 -251 5 -18 7 -17 51 7 26 15 71 41 99 60 l53 34 0 72 c0 40 3
191 5 337 22 1152 25 1389 19 1418 -5 22 -3 32 6 32 9 0 11 -88 6 -407z m229
387 c3 -5 1 -10 -4 -10 -6 0 -11 5 -11 10 0 6 2 10 4 10 3 0 8 -4 11 -10z m50
-38 c-3 -3 -11 0 -18 7 -9 10 -8 11 6 5 10 -3 15 -9 12 -12z m42 -18 c-3 -3
-12 -4 -19 -1 -8 3 -5 6 6 6 11 1 17 -2 13 -5z m73 -51 c0 -2 -13 3 -30 12
-16 9 -30 20 -30 26 0 5 14 0 30 -13 17 -12 30 -23 30 -25z m-910 -58 c-7 -8
-19 -15 -26 -15 -27 0 -14 -21 16 -27 17 -3 33 -10 37 -16 4 -6 -4 -7 -21 -3
-22 5 -26 3 -24 -10 2 -12 -9 -21 -39 -31 -24 -8 -43 -19 -43 -24 0 -5 -7 -9
-15 -9 -8 0 -24 -5 -35 -12 -10 -7 -23 -9 -27 -5 -4 5 -1 12 7 17 13 8 12 10
-2 10 -23 0 -12 30 11 30 14 0 14 2 1 10 -12 8 -10 10 8 10 13 0 21 -3 19 -7
-3 -5 8 -8 23 -8 16 0 32 3 36 8 4 4 0 7 -9 7 -9 0 -17 6 -17 14 0 11 10 14
38 10 35 -4 36 -4 7 6 -16 5 -41 7 -55 5 -14 -3 -1 6 28 20 30 14 57 23 62 20
5 -3 11 -1 15 5 3 5 9 10 12 10 3 0 0 -7 -7 -15z m-180 -84 c0 -5 -13 -15 -30
-23 -29 -13 -40 -28 -20 -28 6 0 10 -4 10 -10 0 -5 -9 -10 -20 -10 -11 0 -20
7 -20 15 0 8 -3 14 -7 14 -29 -5 -21 5 22 25 57 28 65 30 65 17z m998 -62 c59
-28 186 -89 282 -135 96 -47 196 -95 222 -107 26 -12 48 -25 48 -29 0 -13 -3
-11 -156 62 -80 39 -149 70 -154 70 -5 0 -10 3 -12 8 -1 4 -32 21 -68 38 -125
61 -275 136 -279 140 -12 12 20 -1 117 -47z m-469 -11 c-1 -24 -3 -34 -6 -23
-6 25 -23 44 -23 26 0 -8 -7 -10 -22 -5 -20 6 -21 5 -9 -10 12 -14 11 -16 -8
-16 -24 0 -51 -21 -51 -40 0 -6 -5 -8 -11 -5 -6 4 -8 13 -5 21 8 20 -11 17
-23 -3 -9 -16 -12 -16 -21 -3 -8 12 6 23 73 56 45 22 88 42 95 42 8 1 12 -12
11 -40z m-655 -13 c3 -8 15 -15 26 -15 34 0 22 -15 -35 -43 l-55 -27 0 50 c0
48 1 50 29 50 16 0 31 -6 35 -15z m96 -5 c-20 -13 -33 -13 -25 0 3 6 14 10 23
10 15 0 15 -2 2 -10z m557 -692 c-1 -123 -2 -23 -2 222 0 245 1 345 2 223 2
-123 2 -323 0 -445z m-191 639 c4 -4 -2 -10 -12 -13 -10 -4 -27 -14 -36 -22
-10 -8 -26 -12 -38 -9 -11 3 -18 1 -15 -3 3 -5 -11 -14 -30 -20 l-35 -12 0
-229 0 -230 -52 -64 c-28 -35 -54 -63 -57 -61 -3 2 -5 130 -3 283 l3 279 45
22 c25 12 51 19 57 16 7 -4 9 -4 5 1 -9 10 54 45 81 45 10 0 24 7 31 15 12 14
43 16 56 2z m620 -60 c38 -19 87 -42 109 -52 45 -20 168 -77 300 -140 50 -23
111 -52 138 -64 26 -11 47 -25 47 -31 0 -10 -63 18 -275 120 -211 102 -293
140 -305 140 -5 0 -10 4 -10 8 0 5 -18 14 -40 21 -22 6 -40 16 -40 21 0 14 -2
14 76 -23z m-666 -178 c0 -99 -3 -178 -7 -176 -8 5 -5 357 2 357 3 0 5 -81 5
-181z m677 10 c38 -17 82 -37 98 -44 17 -7 74 -34 128 -59 54 -25 100 -46 103
-46 4 0 109 -48 209 -96 33 -15 53 -30 44 -32 -14 -3 -52 14 -343 152 -65 31
-121 56 -125 56 -3 0 -42 18 -85 40 -43 22 -85 40 -92 40 -7 0 -16 5 -19 10
-10 17 12 11 82 -21z m-557 -154 c0 -103 -4 -165 -10 -165 -6 0 -10 62 -10
165 0 103 4 165 10 165 6 0 10 -62 10 -165z m507 13 c15 -6 60 -26 98 -43 39
-18 80 -35 92 -39 12 -4 53 -22 92 -41 40 -19 74 -35 77 -35 4 0 41 -16 83
-36 42 -20 104 -47 138 -61 35 -14 61 -29 58 -33 -6 -10 -39 3 -163 61 -46 21
-85 39 -87 39 -4 0 -107 46 -170 75 -145 68 -230 105 -241 105 -8 0 -14 5 -14
10 0 13 3 13 37 -2z m123 -214 c47 -20 113 -49 148 -65 35 -16 65 -29 67 -29
3 0 34 -13 69 -30 36 -16 77 -32 91 -36 14 -3 25 -10 25 -15 0 -5 7 -9 16 -9
24 0 110 -43 96 -48 -13 -4 -62 15 -189 74 -40 19 -75 34 -78 34 -6 0 -79 32
-130 57 -16 8 -68 29 -115 48 -107 42 -159 68 -160 78 0 4 17 0 38 -8 20 -9
75 -32 122 -51z m-630 6 c0 -5 -4 -10 -10 -10 -5 0 -10 5 -10 10 0 6 5 10 10
10 6 0 10 -4 10 -10z m-875 -100 c4 -6 -3 -9 -16 -7 -21 2 -22 -1 -20 -63 1
-60 0 -63 -14 -46 -8 11 -15 14 -15 8 0 -7 -7 -12 -15 -12 -8 0 -15 -4 -15 -9
0 -5 -10 -11 -22 -14 -13 -2 -31 -8 -40 -12 -10 -4 -18 -3 -18 2 0 6 18 16 40
23 46 15 51 27 16 36 -30 7 -47 -2 -39 -21 3 -8 0 -15 -6 -15 -6 0 -11 6 -11
14 0 7 -15 18 -32 23 l-33 10 30 12 c17 6 62 27 100 46 73 36 100 42 110 25z
m61 -26 c19 -15 19 -15 -1 -6 -11 5 -27 12 -35 15 -13 5 -13 6 1 6 8 1 24 -6
35 -15z m1529 -77 c110 -47 253 -106 318 -132 81 -33 115 -51 108 -58 -7 -7
-14 -7 -23 0 -7 6 -49 24 -93 41 -44 17 -98 40 -120 51 -21 12 -44 21 -51 21
-6 0 -26 7 -45 16 -76 36 -119 55 -229 99 -63 26 -117 49 -120 52 -16 18 79
-16 255 -90z m-1429 38 c23 -12 25 -15 9 -15 -11 1 -29 7 -39 15 -26 19 -6 19
30 0z m-423 -31 c-7 -3 -9 -12 -6 -20 4 -10 -2 -14 -20 -14 -14 0 -29 -5 -33
-11 -5 -8 4 -10 30 -7 25 3 36 0 36 -9 0 -8 15 -13 43 -14 l42 -1 -40 -9 c-27
-7 -41 -6 -43 1 -2 5 -11 10 -19 10 -12 0 -13 -3 -4 -14 10 -12 8 -16 -11 -22
-13 -4 -40 -17 -60 -30 -20 -13 -49 -26 -65 -30 -15 -4 -43 -16 -61 -26 -18
-10 -40 -18 -49 -18 -9 0 -24 -6 -32 -13 -9 -7 -35 -19 -58 -27 -24 -7 -43
-16 -43 -20 0 -4 -10 -10 -22 -13 -13 -2 -31 -8 -40 -12 -10 -4 -18 -3 -18 2
0 6 18 16 39 23 22 7 42 19 46 27 4 12 -3 14 -37 8 -24 -4 -47 -11 -53 -17 -6
-6 -4 -7 8 -3 10 4 17 2 17 -4 0 -12 -23 -15 -33 -4 -11 10 14 33 37 33 11 0
30 7 40 15 35 27 11 25 -45 -2 -30 -15 -60 -26 -68 -24 -7 1 -22 -7 -32 -18
-20 -22 -25 -36 -9 -26 6 3 10 -3 10 -14 0 -11 8 -21 18 -23 14 -3 13 -5 -5
-10 -16 -4 -23 -2 -23 8 0 8 -9 14 -20 14 -11 0 -20 -4 -20 -10 0 -5 7 -7 15
-4 9 4 15 0 15 -9 0 -8 -9 -17 -20 -20 -18 -5 -20 0 -19 46 1 41 3 47 9 27 4
-14 9 -20 10 -15 1 6 3 15 5 20 1 6 3 16 3 24 1 8 5 12 8 9 6 -7 45 8 136 52
33 16 64 27 68 25 5 -3 10 -2 12 3 6 15 117 61 137 57 12 -2 21 1 21 7 0 5 -7
8 -15 4 -8 -3 -15 -2 -15 3 0 5 17 11 38 15 20 4 71 24 112 45 41 22 80 39 85
39 6 0 5 -2 -2 -4z m1669 -94 c29 -11 62 -24 73 -29 11 -5 43 -18 70 -29 28
-12 142 -58 255 -102 112 -44 209 -85 214 -90 15 -15 -17 -13 -56 4 -93 40
-128 55 -183 76 -33 12 -93 38 -133 56 -40 19 -78 34 -83 34 -6 0 -29 8 -52
19 -23 10 -69 29 -102 42 -33 12 -64 27 -69 31 -17 14 11 9 66 -12z m-1277
-140 c3 -5 -1 -10 -9 -10 -9 0 -16 5 -16 10 0 6 4 10 9 10 6 0 13 -4 16 -10z
m1335 -47 c25 -8 54 -19 65 -24 11 -5 125 -49 253 -97 128 -49 233 -93 232
-98 -1 -5 -7 -8 -13 -7 -14 2 -389 147 -434 168 -17 8 -38 15 -47 15 -9 0 -16
5 -16 10 0 6 -8 10 -17 10 -10 0 -46 13 -80 30 -68 31 -88 51 -25 24 20 -9 57
-23 82 -31z m-1274 29 c5 -5 50 -23 99 -41 50 -18 99 -37 110 -42 11 -5 85
-33 165 -63 188 -71 228 -88 213 -93 -10 -4 -147 47 -251 93 -18 8 -37 14 -42
14 -6 0 -33 11 -62 25 -28 13 -66 27 -85 31 -18 3 -33 10 -33 15 0 5 -6 9 -13
9 -7 0 -44 13 -82 30 -39 16 -61 30 -49 30 11 0 24 -4 30 -8z m-376 -583 c0
-357 -3 -568 -9 -565 -6 4 -8 207 -5 534 3 496 -1 623 -20 565 -5 -17 -18 -25
-46 -29 -24 -4 -42 -13 -45 -23 -6 -19 -75 -24 -88 -7 -6 8 -10 8 -13 -1 -7
-17 -74 -57 -82 -49 -3 4 0 11 7 15 9 6 10 11 2 15 -6 4 -11 2 -11 -3 0 -6 -8
-11 -17 -11 -16 1 -16 2 1 15 11 8 30 15 42 15 13 0 26 4 29 10 3 5 23 9 43 9
20 -1 59 6 85 15 26 9 54 16 62 16 8 0 15 9 15 19 0 17 11 25 42 30 4 0 7
-256 8 -570z m-70 541 c0 -5 -19 -14 -42 -20 -24 -6 -52 -14 -63 -17 -38 -10
-4 12 43 29 57 20 62 21 62 8z m-63 -647 c-1 -104 -2 -19 -2 187 0 206 1 291
2 188 2 -104 2 -272 0 -375z m488 526 c15 -15 -18 -10 -45 6 l-25 15 30 -6
c17 -4 34 -11 40 -15z m-675 1 c0 -5 -9 -10 -19 -10 -11 0 -22 -4 -26 -10 -3
-5 -12 -7 -20 -4 -7 3 -21 1 -31 -4 -13 -7 -11 -10 15 -15 l31 -6 0 -288 0
-288 -53 -72 c-28 -40 -56 -72 -60 -73 -4 0 -7 167 -7 371 l2 370 26 11 c15 5
50 14 77 18 28 4 53 8 58 9 4 0 7 -3 7 -9z m67 -297 c-1 -59 -3 -13 -3 102 0
116 2 164 3 108 2 -56 2 -151 0 -210z m1829 298 c5 -5 25 -14 44 -19 31 -9 99
-35 385 -143 44 -17 108 -40 142 -52 35 -12 63 -25 63 -29 0 -14 -24 -8 -120
28 -52 20 -113 43 -135 51 -22 7 -49 17 -60 22 -11 5 -56 22 -100 39 -248 92
-293 112 -249 112 11 0 24 -4 30 -9z m-1082 -42 c56 -17 146 -44 201 -61 55
-17 133 -41 173 -54 40 -13 79 -24 87 -24 8 0 15 -4 15 -10 0 -14 -8 -13 -76
9 -32 10 -126 40 -209 66 -227 72 -321 104 -306 104 8 1 60 -13 115 -30z m-4
-152 c85 -20 184 -43 220 -51 118 -27 255 -60 259 -63 2 -2 2 -6 -1 -9 -3 -3
-73 11 -154 31 -82 20 -176 43 -209 50 -81 18 -298 74 -310 80 -19 9 40 -2
195 -38z m1233 -22 c100 -36 191 -70 202 -75 11 -5 31 -12 45 -15 14 -3 41
-12 60 -20 19 -7 68 -26 108 -40 42 -16 70 -31 65 -36 -5 -5 -32 0 -63 12 -30
11 -91 33 -135 49 -334 121 -470 172 -479 181 -20 19 20 7 197 -56z m-1310
-121 c56 -8 127 -19 157 -24 30 -5 87 -14 125 -20 202 -30 275 -44 275 -53 0
-5 -11 -6 -24 -3 -13 3 -54 10 -92 16 -38 6 -112 17 -164 25 -52 8 -126 19
-165 25 -103 15 -228 40 -233 45 -8 8 11 6 121 -11z m127 -169 c334 -28 430
-38 430 -47 0 -8 -43 -6 -230 12 -52 5 -162 15 -245 21 -82 6 -163 14 -180 19
-29 8 -29 8 10 9 22 1 119 -6 215 -14z m430 -165 c0 -6 -52 -10 -128 -10 -194
0 -552 12 -552 19 0 3 153 5 340 3 212 -1 340 -6 340 -12z m1961 -57 c8 -7 21
-13 27 -13 7 0 12 -3 12 -7 0 -5 23 -21 50 -38 l50 -29 0 -277 c0 -163 -4
-280 -9 -284 -6 -3 -35 36 -65 88 l-56 93 0 202 c0 148 -3 202 -12 202 -6 0
-19 7 -29 16 -34 30 -39 8 -39 -157 0 -99 -4 -159 -10 -159 -6 0 -10 77 -10
211 l0 211 38 -23 c20 -12 44 -28 53 -36z m-1961 -63 c0 -5 -24 -10 -53 -10
-29 0 -129 -6 -222 -14 -259 -22 -422 -30 -410 -19 6 5 91 16 190 23 99 7 216
16 260 20 127 11 235 11 235 0z m0 -118 c0 -4 -39 -13 -87 -20 -49 -6 -182
-25 -298 -41 -115 -17 -229 -33 -252 -36 -24 -4 -43 -2 -43 3 0 5 39 14 88 21
48 7 112 17 142 22 30 5 107 16 170 25 63 10 135 20 160 24 65 10 120 11 120
2z m0 -119 c0 -5 -48 -18 -108 -30 -172 -35 -552 -122 -562 -128 -5 -3 -11 -1
-15 5 -9 15 16 22 225 66 41 8 140 30 220 49 196 45 240 52 240 38z m-2 -115
c-2 -6 -26 -17 -54 -25 -27 -8 -92 -27 -144 -43 -246 -76 -438 -133 -465 -137
-58 -10 -11 14 80 41 50 15 140 43 200 61 61 19 151 46 200 60 50 15 108 33
130 40 51 17 58 18 53 3z m2922 -2758 c0 -5 -12 -10 -27 -10 -16 0 -77 -5
-138 -10 -102 -9 -631 -43 -1645 -105 -223 -14 -463 -30 -535 -35 -71 -6 -200
-15 -285 -20 -198 -11 -686 -45 -945 -64 -179 -14 -211 -14 -300 -1 -160 25
-628 94 -775 115 -74 11 -180 26 -235 35 -55 8 -179 27 -275 41 -96 14 -177
27 -179 30 -16 15 25 15 127 0 64 -10 160 -24 212 -31 52 -7 142 -20 200 -29
723 -107 945 -138 1000 -143 36 -2 286 9 555 27 270 17 569 35 665 40 189 10
571 35 660 45 30 3 188 15 350 26 162 11 387 26 500 34 113 8 315 21 450 30
135 9 286 20 335 24 135 12 285 13 285 1z m-107 -70 c-4 -5 -154 -20 -333 -34
-179 -15 -408 -33 -510 -42 -102 -8 -273 -21 -380 -29 -107 -8 -217 -17 -245
-20 -27 -2 -147 -12 -265 -20 -118 -8 -267 -20 -330 -25 -63 -6 -180 -15 -260
-21 -200 -14 -318 -24 -585 -48 -126 -11 -293 -25 -370 -31 -77 -5 -201 -15
-275 -21 -97 -7 -153 -7 -200 1 -90 15 -147 25 -365 65 -104 19 -217 39 -250
44 -68 11 -411 73 -525 95 -41 8 -112 20 -157 28 -52 8 -85 18 -88 26 -4 12 2
13 27 8 18 -4 96 -18 173 -31 77 -13 241 -43 365 -65 124 -23 252 -45 285 -51
33 -5 168 -29 300 -53 323 -59 309 -57 437 -46 62 5 176 14 253 20 77 5 282
21 455 35 173 14 410 33 525 41 116 8 255 19 310 24 55 4 156 13 225 19 69 5
175 15 235 21 167 16 300 27 775 65 239 19 491 39 560 45 211 18 232 18 213 0z
m-1938 -718 c33 -6 40 -11 43 -33 l3 -27 -89 6 c-108 6 -156 -7 -177 -48 -24
-46 -19 -95 13 -128 27 -29 50 -40 171 -83 106 -37 142 -93 126 -195 -9 -64
-64 -118 -134 -133 -65 -14 -98 -14 -177 0 -49 8 -65 15 -70 31 -9 30 6 37 56
28 69 -14 167 -12 206 5 47 19 68 68 55 127 -12 50 -37 71 -111 93 -88 25
-162 67 -187 104 -32 48 -32 144 0 191 38 58 151 83 272 62z m-677 -36 c-3
-20 -9 -21 -143 -24 -76 -1 -142 -6 -145 -11 -3 -5 -4 -57 -2 -115 l3 -106
125 0 124 0 0 -31 0 -30 -125 3 c-77 2 -126 -1 -127 -7 -2 -5 -2 -58 0 -117
l3 -108 150 0 150 0 -3 -27 -3 -28 -169 -1 c-93 -1 -176 0 -183 3 -10 4 -13
68 -13 314 l0 309 168 2 c92 2 173 1 180 -1 7 -2 12 -13 10 -25z m1500 1 c-3
-20 -9 -22 -85 -25 l-83 -3 0 -284 0 -285 -30 0 -30 0 0 285 0 284 -82 3 c-72
3 -83 6 -86 22 -2 10 1 21 6 25 6 3 96 5 202 3 191 -3 191 -3 188 -25z m2160
1 l3 -27 -143 -3 -143 -3 0 -110 0 -110 128 -3 128 -3 -3 -27 -3 -27 -120 0
c-68 0 -123 -4 -127 -10 -4 -5 -8 -58 -8 -117 l0 -108 150 0 150 0 0 -30 0
-30 -177 2 -178 3 -3 305 c-1 168 0 311 3 318 3 10 43 12 172 10 l168 -3 3
-27z m-6864 -29 c43 -44 47 -51 52 -110 8 -84 -9 -143 -52 -185 -19 -19 -34
-43 -34 -54 0 -11 20 -61 45 -111 25 -50 45 -95 45 -100 0 -15 -87 -10 -103 5
-7 8 -22 36 -32 62 -10 27 -21 51 -24 54 -3 3 -12 23 -20 45 -17 49 -25 55
-76 54 -69 -1 -70 -2 -70 -119 l0 -105 -45 0 -45 0 -3 309 -2 308 159 -3 159
-4 46 -46z m846 0 l0 -50 -132 2 -133 2 0 -84 0 -84 68 3 c37 2 90 1 117 -3
50 -7 50 -7 50 -45 0 -48 -9 -51 -125 -50 -49 1 -96 1 -102 1 -9 -1 -13 -24
-13 -80 0 -63 3 -80 16 -85 9 -3 72 -6 140 -6 l125 0 -3 -42 -3 -43 -187 -3
-186 -2 -5 37 c-5 32 -3 573 2 581 0 1 84 2 186 2 l185 0 0 -51z m678 39 c5
-7 13 -24 16 -38 4 -14 11 -34 16 -45 4 -11 22 -63 39 -115 18 -52 35 -104 40
-115 4 -11 23 -67 41 -125 19 -58 38 -109 42 -114 4 -6 8 -20 8 -33 0 -21 -4
-23 -53 -23 l-53 0 -20 63 -20 62 -115 3 -115 3 -19 -63 -20 -63 -44 -3 c-24
-2 -49 -1 -56 1 -8 4 3 49 40 159 28 84 73 216 99 293 26 77 49 146 51 153 3
7 24 12 58 12 32 0 59 -5 65 -12z m692 -248 l0 -259 118 -3 117 -3 3 -47 3
-48 -175 0 -176 0 0 310 0 310 55 0 55 0 0 -260z m3063 153 c20 -60 41 -121
46 -138 5 -16 27 -82 49 -145 56 -164 72 -214 72 -223 0 -5 -10 -7 -21 -5 -17
2 -27 20 -49 81 -15 43 -29 79 -31 80 -2 1 -62 0 -134 -3 l-130 -5 -13 -40
c-7 -22 -16 -49 -21 -60 -5 -11 -12 -28 -15 -37 -3 -11 -15 -18 -31 -18 -14 0
-25 1 -25 3 0 2 32 95 71 208 39 112 84 245 100 294 16 50 31 96 34 103 2 6
17 12 33 12 28 0 30 -4 65 -107z m847 81 l0 -25 -85 3 -85 3 0 -256 c0 -297
-3 -319 -36 -319 l-24 0 0 285 0 285 -85 0 c-84 0 -85 0 -85 25 l0 25 200 0
200 0 0 -26z m-4033 -905 c-21 -3 -42 -10 -48 -16 -17 -17 2 -44 42 -60 56
-22 66 -83 16 -97 -39 -10 -79 -7 -74 7 2 7 16 11 35 9 23 -3 33 2 43 19 10
19 9 25 -7 36 -10 7 -24 13 -33 13 -39 0 -67 64 -38 88 15 13 56 19 82 13 14
-4 9 -7 -18 -12z m307 -1 c-3 -5 -13 -8 -22 -7 -41 4 -52 -1 -52 -24 0 -18 10
-28 43 -43 38 -17 42 -23 42 -54 0 -32 -3 -36 -36 -44 -20 -5 -45 -5 -55 -1
-17 8 -16 9 6 12 59 8 70 14 70 34 0 14 -13 25 -46 39 -43 19 -45 21 -42 57 2
30 8 38 28 43 32 8 71 1 64 -12z m509 13 c51 -20 63 -136 17 -173 -30 -25 -75
-23 -100 4 -15 17 -20 35 -20 78 0 57 12 79 50 93 22 8 26 8 53 -2z m-2284
-20 c12 -12 17 -27 14 -45 -7 -33 -20 -44 -63 -48 -31 -3 -35 -6 -32 -30 2
-14 -2 -29 -7 -33 -8 -4 -11 23 -11 84 l0 91 40 0 c26 0 47 -7 59 -19z m307
-8 c4 -14 2 -41 -5 -58 -8 -23 -8 -40 -1 -60 6 -15 8 -30 5 -33 -6 -6 -5 -7
-25 33 -9 17 -25 31 -38 33 -19 3 -22 -1 -22 -32 0 -20 -4 -36 -10 -36 -6 0
-10 37 -10 90 l0 90 50 0 c45 0 50 -2 56 -27z m319 -3 c18 -34 19 -75 4 -118
-8 -23 -18 -31 -43 -36 -18 -4 -41 -4 -50 0 -39 15 -59 101 -35 147 16 30 28
37 71 37 31 0 40 -5 53 -30z m310 20 c-3 -5 -24 -10 -46 -10 l-39 0 0 -74 c0
-41 -4 -78 -10 -81 -6 -4 -10 27 -10 84 l0 91 56 0 c34 0 53 -4 49 -10z m280
0 c-3 -5 -24 -10 -46 -10 -37 0 -39 -2 -39 -30 0 -28 3 -30 35 -30 19 0 35 -4
35 -10 0 -5 -16 -10 -36 -10 -34 0 -35 -1 -32 -32 3 -30 6 -33 38 -33 19 0 36
-5 38 -10 1 -6 -2 -10 -8 -9 -5 1 -28 2 -50 3 l-40 1 0 90 0 90 56 0 c34 0 53
-4 49 -10z m775 3 c5 -91 1 -168 -8 -171 -9 -3 -12 22 -12 87 0 54 4 91 10 91
6 0 10 -3 10 -7z m590 -61 l45 -67 3 68 c4 100 22 82 22 -23 0 -110 -10 -114
-65 -26 l-40 63 -5 -64 c-8 -97 -25 -82 -28 25 -3 114 6 117 68 24z m362 -18
c32 -94 35 -112 13 -94 -8 7 -15 19 -15 26 0 10 -13 14 -40 14 -28 0 -40 -4
-40 -14 0 -16 -18 -31 -26 -23 -4 4 41 151 53 170 12 20 30 -6 55 -79z m228 7
l0 -80 38 -3 c49 -4 39 -23 -13 -23 l-40 0 -3 93 c-2 59 1 92 8 92 6 0 10 -31
10 -79z m535 69 c-3 -5 -15 -10 -26 -10 -17 0 -19 -8 -19 -86 0 -54 -4 -83
-10 -79 -5 3 -10 42 -10 86 0 78 0 79 -25 79 -14 0 -25 5 -25 10 0 6 27 10 61
10 37 0 58 -4 54 -10z m225 7 c0 -2 14 -41 30 -87 34 -95 34 -93 18 -87 -7 2
-13 10 -13 18 0 9 -14 15 -43 17 -37 3 -44 0 -49 -17 -3 -12 -10 -21 -15 -21
-5 0 -8 6 -6 13 33 112 54 167 65 167 7 0 13 -2 13 -3z m340 -7 c0 -5 -13 -7
-29 -4 -40 8 -71 -23 -71 -74 0 -50 23 -82 61 -82 26 0 29 3 29 30 0 22 -6 33
-22 40 -21 8 -20 9 10 9 31 1 32 0 32 -43 0 -31 -5 -46 -16 -50 -28 -11 -59
-6 -84 14 -22 16 -25 27 -25 78 0 75 14 92 71 92 24 0 44 -4 44 -10z m220 -80
l0 -79 38 -4 c34 -3 33 -4 -10 -5 l-48 -2 0 91 c0 57 4 88 10 84 6 -3 10 -42
10 -85z m605 -89 c-8 -7 -55 49 -55 64 0 6 3 6 8 -1 4 -6 14 -13 22 -16 12 -5
15 4 13 51 -1 31 1 63 5 71 4 8 8 -25 10 -74 2 -49 0 -91 -3 -95z m295 169 c0
-5 -18 -10 -40 -10 l-39 0 2 -72 2 -73 39 -3 c61 -4 56 -12 -7 -12 l-57 0 0
90 0 90 50 0 c28 0 50 -4 50 -10z m-633 -133 c-2 -23 -3 -1 -3 48 0 50 1 68 3
42 2 -26 2 -67 0 -90z m241 108 c29 -34 28 -37 -8 -17 -16 9 -30 23 -30 30 0
19 14 14 38 -13z m-18 -92 c0 -23 -4 -45 -10 -48 -6 -4 -10 17 -10 57 0 44 3
59 10 48 5 -8 10 -34 10 -57z m-4060 37 c0 -5 -13 -10 -30 -10 -16 0 -30 5
-30 10 0 6 14 10 30 10 17 0 30 -4 30 -10z m4460 0 c0 -5 -11 -10 -25 -10 -14
0 -25 5 -25 10 0 6 11 10 25 10 14 0 25 -4 25 -10z m900 -10 c0 -6 -135 -10
-386 -10 -254 0 -383 3 -379 10 4 6 143 10 386 10 246 0 379 -4 379 -10z
m-6722 -7 c-104 -2 -272 -2 -375 0 -104 1 -19 2 187 2 206 0 291 -1 188 -2z
m5952 -279 c0 -14 -5430 -20 -5546 -7 -125 14 713 19 3163 19 1789 -1 2383 -4
2383 -12z m-6022 0 c-8 -7 -258 -7 -266 0 -3 3 57 6 133 6 76 0 136 -3 133 -6z
m282 -4 c-20 -13 -147 -13 -155 0 -4 6 26 10 82 10 60 0 83 -3 73 -10z m5975
0 c-3 -5 -31 -10 -61 -10 -30 0 -54 5 -54 10 0 6 27 10 61 10 37 0 58 -4 54
-10z m235 0 c0 -5 -24 -10 -54 -10 -30 0 -58 5 -61 10 -4 6 17 10 54 10 34 0
61 -4 61 -10z"/>
<path d="M5980 9940 c0 -5 5 -10 10 -10 6 0 10 5 10 10 0 6 -4 10 -10 10 -5 0
-10 -4 -10 -10z"/>
<path d="M6000 9904 c0 -8 5 -12 10 -9 6 3 10 10 10 16 0 5 -4 9 -10 9 -5 0
-10 -7 -10 -16z"/>
<path d="M5943 9890 c-23 -9 -33 -50 -13 -50 5 0 7 6 4 14 -4 10 3 16 23 18
15 2 27 7 26 13 -2 14 -15 15 -40 5z"/>
<path d="M5660 9780 c0 -5 5 -10 11 -10 5 0 8 -4 5 -8 -2 -4 -1 -14 3 -21 6
-9 11 -10 15 -2 4 6 2 11 -3 11 -6 0 -10 3 -10 8 3 18 -2 32 -11 32 -5 0 -10
-4 -10 -10z"/>
<path d="M5625 9730 c-3 -5 3 -10 14 -10 12 0 21 5 21 10 0 6 -6 10 -14 10 -8
0 -18 -4 -21 -10z"/>
<path d="M6027 8013 c-2 -5 -3 -35 -2 -68 2 -33 3 -244 4 -468 l1 -408 23 12
c12 7 24 15 27 19 5 6 177 135 394 293 l106 78 0 175 0 175 -47 20 c-27 11
-93 35 -148 54 -142 47 -297 103 -317 115 -21 12 -35 13 -41 3z m127 -234 c8
-79 8 -412 0 -461 -16 -96 -24 -15 -24 242 0 266 9 354 24 219z m116 -223 c0
-99 -4 -167 -10 -171 -7 -4 -10 53 -10 164 0 107 4 171 10 171 6 0 10 -61 10
-164z m130 -17 c0 -68 -3 -90 -12 -86 -7 2 -13 9 -12 15 1 7 2 46 3 87 2 109
21 95 21 -16z"/>
<path d="M7395 7931 c-28 -15 -103 -60 -168 -99 -65 -40 -120 -72 -123 -72 -3
0 -29 -15 -57 -33 -29 -19 -64 -41 -79 -50 -27 -17 -38 -47 -18 -47 6 0 10 -4
10 -10 0 -5 9 -20 19 -32 10 -13 46 -58 80 -100 105 -134 182 -232 205 -260
11 -15 46 -59 76 -98 30 -40 67 -86 82 -103 l28 -32 0 483 c0 265 -1 482 -2
482 -2 0 -26 -13 -53 -29z m-35 -121 c0 -5 -30 -26 -67 -47 -38 -21 -75 -42
-85 -48 -59 -36 -133 -75 -140 -75 -21 0 -4 20 35 40 23 12 87 48 142 81 103
61 115 66 115 49z m0 -149 c0 -11 -182 -121 -212 -129 -36 -9 -17 16 30 41 26
13 74 41 107 60 64 39 75 43 75 28z m0 -153 c0 -16 -136 -87 -150 -78 -9 6 11
20 105 71 38 21 45 22 45 7z m0 -151 c0 -14 -40 -37 -65 -37 -25 0 -17 14 18
32 40 21 47 21 47 5z"/>
<path d="M6810 7402 l-42 -37 38 -50 c92 -121 138 -180 144 -185 4 -3 25 -30
47 -60 23 -30 78 -102 124 -160 45 -58 106 -137 135 -176 29 -39 59 -78 66
-85 8 -8 25 -30 38 -49 13 -19 29 -40 35 -46 5 -6 24 -28 40 -49 63 -81 55
-76 105 -60 25 7 57 16 73 20 l28 6 -33 42 c-18 23 -36 44 -39 47 -3 3 -39 48
-80 101 -75 97 -185 235 -204 255 -10 11 -22 26 -102 134 -26 36 -53 71 -60
78 -8 8 -26 30 -41 50 -15 20 -34 46 -44 57 -9 11 -39 49 -67 85 -88 112 -95
120 -107 120 -6 0 -31 -17 -54 -38z"/>
<path d="M6733 7343 c-15 -5 -18 -33 -4 -33 5 0 16 -3 25 -6 10 -4 16 -1 16 9
0 19 -21 36 -37 30z"/>
<path d="M6625 7259 c-16 -16 -17 -22 -6 -28 18 -11 236 -54 249 -50 6 2 -3
19 -18 38 -46 54 -186 79 -225 40z"/>
<path d="M6464 7125 c-55 -42 -106 -81 -114 -88 -9 -6 -54 -41 -100 -77 -47
-35 -86 -68 -88 -72 -2 -4 -9 -8 -15 -8 -7 0 -33 -20 -58 -43 l-47 -42 -5
-1171 c-4 -851 -2 -1175 6 -1183 15 -15 101 -14 140 2 18 8 56 36 86 63 62 56
98 74 151 74 50 0 140 -21 140 -32 0 -5 4 -6 10 -3 12 8 14 2642 1 2649 -5 3
-53 -28 -107 -69z m-64 -925 c0 -607 -2 -690 -15 -690 -13 0 -15 83 -15 684 0
672 1 687 28 695 1 1 2 -309 2 -689z m-126 226 c7 -390 -2 -1016 -16 -1016 -4
0 -8 308 -8 685 0 377 4 685 8 685 5 0 12 -159 16 -354z m-114 -501 c0 -638
-2 -725 -15 -725 -13 0 -15 87 -15 725 0 638 2 725 15 725 13 0 15 -87 15
-725z m240 -594 c0 -44 -4 -82 -9 -85 -13 -9 -18 11 -20 92 -2 60 0 72 13 72
13 0 16 -14 16 -79z m-130 -136 c0 -70 -4 -115 -10 -115 -6 0 -10 45 -10 115
0 70 4 115 10 115 6 0 10 -45 10 -115z m130 -191 c0 -71 -4 -124 -9 -124 -9 0
-21 247 -12 256 15 14 21 -24 21 -132z m-245 -5 c0 -125 -19 -120 -23 7 -2 75
0 95 10 92 9 -4 13 -31 13 -99z m115 -109 c0 -53 -4 -90 -10 -90 -11 0 -14
162 -3 173 12 13 13 7 13 -83z m-120 -195 c0 -63 -4 -105 -10 -105 -11 0 -14
192 -3 203 12 13 13 7 13 -98z"/>
<path d="M6600 7157 c0 -33 1 -34 68 -50 37 -9 96 -21 132 -28 36 -6 89 -18
118 -24 43 -11 52 -11 52 0 0 8 -7 20 -15 29 -8 8 -15 19 -15 24 0 5 -44 19
-97 31 -54 12 -126 28 -160 36 -83 20 -83 20 -83 -18z"/>
<path d="M6600 7052 c0 -17 4 -33 9 -37 9 -5 105 -26 355 -76 54 -11 101 -17
103 -15 8 7 -39 65 -56 70 -9 3 -59 14 -111 26 -52 12 -122 28 -155 35 -33 8
-79 17 -102 21 -43 7 -43 6 -43 -24z"/>
<path d="M6607 6973 c-11 -10 -8 -61 3 -68 6 -4 61 -10 124 -15 88 -7 125 -14
162 -33 46 -22 270 -74 280 -65 2 3 -11 21 -28 41 -31 34 -41 37 -163 63 -310
63 -345 71 -351 77 -9 9 -19 9 -27 0z"/>
<path d="M4032 6888 c-6 -6 -12 -18 -12 -25 0 -7 -4 -21 -9 -31 -5 -9 -28 -62
-51 -117 -23 -55 -45 -109 -50 -120 -32 -72 -70 -172 -70 -182 0 -7 -4 -13
-10 -13 -5 0 -10 -9 -10 -19 0 -11 -4 -22 -9 -25 -5 -3 -12 -17 -15 -31 -4
-14 -18 -51 -33 -81 -21 -44 -24 -61 -17 -82 5 -15 14 -26 19 -25 10 1 75 149
75 170 0 7 5 13 10 13 6 0 10 8 10 18 0 10 4 22 9 28 5 5 18 35 30 66 11 32
25 66 30 75 4 10 18 37 30 59 11 23 21 47 21 53 0 6 13 40 30 75 16 36 37 82
45 103 l16 38 22 -25 c12 -14 36 -43 52 -64 17 -22 37 -46 45 -55 9 -9 36 -41
60 -71 146 -179 127 -164 232 -184 51 -9 159 -33 239 -52 80 -19 154 -34 163
-34 16 0 146 103 154 123 2 4 8 7 14 7 5 0 15 6 22 13 7 6 32 28 57 49 24 20
63 52 87 72 l43 35 -38 9 c-47 12 -90 21 -378 78 -126 26 -293 60 -370 76 -77
16 -194 39 -260 53 -66 13 -131 26 -145 30 -15 3 -30 1 -38 -7z"/>
<path d="M6600 6843 c0 -26 0 -26 20 -8 16 14 17 20 8 27 -22 13 -28 9 -28
-19z"/>
<path d="M6671 6834 c-26 -19 -53 -76 -46 -96 6 -15 376 -91 388 -79 26 26
-87 150 -158 174 -63 22 -153 22 -184 1z"/>
<path d="M7000 6775 c0 -14 47 -75 60 -79 47 -14 213 -46 218 -42 5 6 -56 86
-66 86 -4 0 -49 9 -101 20 -101 21 -111 23 -111 15z"/>
<path d="M4039 6608 c-17 -34 -37 -78 -44 -97 -8 -20 -35 -83 -60 -141 -56
-126 -115 -270 -115 -280 0 -17 157 -57 169 -44 4 5 14 25 21 44 15 40 65 160
86 207 8 17 14 34 14 37 0 3 11 30 25 60 14 30 25 59 25 64 0 5 7 23 16 41
l16 32 -57 69 c-32 39 -59 70 -61 70 -2 0 -18 -28 -35 -62z"/>
<path d="M6622 6353 l3 -318 60 -7 c33 -4 75 -9 93 -12 l32 -5 0 313 0 312
-82 17 c-46 9 -89 17 -96 17 -10 0 -12 -67 -10 -317z"/>
<path d="M7069 6613 c6 -37 7 -38 71 -49 36 -7 100 -19 143 -28 102 -21 110
-21 98 2 -26 46 -61 70 -113 77 -29 4 -80 13 -113 21 -91 21 -93 20 -86 -23z"/>
<path d="M6855 6622 c-8 -8 -6 -610 3 -615 4 -3 45 -8 92 -11 l85 -7 -5 302
-5 303 -82 17 c-46 9 -85 14 -88 11z"/>
<path d="M5772 6598 c-17 -17 -15 -28 6 -28 24 0 32 8 25 26 -6 17 -15 18 -31
2z"/>
<path d="M7965 6576 c-42 -13 -163 -50 -203 -61 -13 -4 -38 -20 -56 -36 -24
-20 -54 -33 -105 -44 -40 -8 -74 -15 -76 -15 -2 0 -10 -6 -17 -14 -7 -7 -125
-127 -262 -265 -136 -139 -246 -254 -244 -257 3 -2 68 11 144 30 77 19 163 40
193 46 54 13 85 36 232 180 25 25 91 86 145 137 54 50 151 141 214 202 118
114 122 125 35 97z"/>
<path d="M5656 6506 c-21 -18 -35 -36 -30 -39 14 -8 165 -28 174 -22 4 3 7 21
6 42 -1 30 -6 38 -26 44 -54 15 -84 9 -124 -25z"/>
<path d="M7070 6510 c0 -17 -1 -33 -1 -37 -2 -9 73 -28 171 -43 36 -6 97 -16
135 -23 39 -7 78 -11 88 -9 16 3 16 6 -5 35 -12 18 -22 33 -23 34 0 2 -261 54
-337 68 -25 4 -28 2 -28 -25z"/>
<path d="M4190 6478 c-5 -13 -43 -106 -85 -208 -114 -275 -107 -248 -99 -371
4 -60 11 -109 16 -109 11 0 51 18 336 150 l72 34 0 171 0 172 -25 11 c-14 7
-32 12 -39 12 -13 0 -46 33 -115 118 -38 48 -48 51 -61 20z m140 -333 l0 -175
-87 -44 c-49 -24 -98 -47 -110 -50 l-23 -7 0 166 0 165 25 12 c14 6 25 15 25
20 0 4 6 8 13 8 6 0 39 18 72 39 33 22 66 40 73 40 9 1 12 -40 12 -174z"/>
<path d="M4253 6263 c-22 -15 -23 -21 -23 -164 0 -82 3 -149 8 -149 4 0 22 9
40 20 l32 20 0 145 c0 132 -2 145 -17 144 -10 0 -28 -7 -40 -16z"/>
<path d="M4163 6207 l-33 -19 0 -144 c0 -79 3 -144 8 -144 4 0 22 9 40 20 l32
20 0 132 c0 73 -4 138 -8 144 -5 7 -17 5 -39 -9z"/>
<path d="M7992 6416 l-54 -54 37 -48 c20 -27 42 -56 48 -64 26 -33 76 -98 117
-155 88 -120 125 -170 138 -184 7 -7 45 -56 84 -108 58 -79 74 -94 92 -89 11
3 45 8 74 12 29 4 55 10 58 15 4 6 -126 197 -174 254 -4 6 -23 33 -42 60 -40
59 -41 59 -78 105 -16 19 -42 55 -59 80 -17 25 -40 54 -50 65 -10 11 -29 36
-43 55 -13 19 -27 37 -30 40 -3 3 -16 20 -29 38 -12 17 -25 32 -29 32 -4 0
-31 -24 -60 -54z"/>
<path d="M5564 6427 c-89 -53 -97 -62 -66 -71 18 -5 121 -21 207 -31 28 -4 60
-9 73 -12 20 -5 22 -2 22 39 l0 45 -87 17 c-49 10 -97 19 -108 21 -11 2 -29
-1 -41 -8z"/>
<path d="M7067 6414 c-2 -5 -3 -23 0 -39 l5 -31 149 -24 149 -23 25 23 c14 13
24 28 22 34 -2 6 -37 16 -78 23 -41 6 -99 17 -129 23 -96 19 -137 23 -143 14z"/>
<path d="M4450 6161 c0 -111 3 -161 11 -161 9 0 81 51 99 70 3 3 21 17 42 32
20 15 42 34 50 41 7 7 39 34 71 60 34 28 53 49 45 51 -35 12 -236 57 -274 63
l-44 6 0 -162z"/>
<path d="M5386 6295 c-16 -14 -33 -25 -38 -25 -5 0 -8 -6 -6 -12 3 -7 29 -16
59 -20 45 -5 154 -21 365 -53 31 -4 32 -3 36 36 2 22 -1 44 -7 48 -5 4 -48 13
-95 20 -47 7 -112 16 -145 21 -101 16 -137 13 -169 -15z"/>
<path d="M7920 6310 c0 -5 9 -10 20 -10 11 0 20 5 20 10 0 6 -9 10 -20 10 -11
0 -20 -4 -20 -10z"/>
<path d="M7067 6303 c-3 -5 -4 -21 -3 -38 l1 -30 104 -18 104 -17 24 22 c22
21 31 48 16 48 -5 0 -60 9 -123 20 -63 11 -116 20 -117 20 -1 0 -4 -3 -6 -7z"/>
<path d="M7855 6249 l-27 -33 53 -13 c30 -7 68 -12 84 -13 17 0 36 -4 44 -9
15 -9 41 -4 41 8 0 4 -16 24 -35 44 -24 25 -44 37 -62 37 -16 0 -37 3 -49 6
-15 4 -28 -3 -49 -27z"/>
<path d="M5242 6185 c-23 -16 -41 -35 -42 -41 0 -14 565 -92 592 -81 9 3 13
18 10 44 l-4 39 -86 12 c-48 6 -136 19 -197 27 -243 35 -226 35 -273 0z"/>
<path d="M7060 6163 c0 -44 12 -52 72 -55 50 -2 58 0 81 27 l25 30 -22 6 c-12
4 -52 9 -89 13 l-67 8 0 -29z"/>
<path d="M7767 6166 c-46 -43 -44 -44 78 -65 33 -5 85 -13 115 -16 30 -3 66
-10 80 -15 41 -14 100 -19 100 -9 0 5 -7 17 -15 26 -8 10 -20 26 -27 36 -10
13 -46 22 -138 37 -69 10 -134 22 -145 25 -14 4 -29 -2 -48 -19z"/>
<path d="M5118 6093 c-1 -5 -20 -21 -40 -36 -21 -15 -38 -31 -38 -35 0 -5 53
-14 118 -21 64 -7 146 -16 182 -20 279 -35 443 -52 453 -48 7 3 12 18 11 33
-1 16 -3 34 -3 40 -1 11 -42 18 -406 64 -249 32 -272 34 -277 23z"/>
<path d="M7663 6066 c-19 -16 -25 -28 -18 -35 9 -8 94 -20 255 -35 53 -4 170
-36 170 -45 0 -8 146 -8 155 0 3 4 -9 22 -27 41 l-33 34 -220 32 c-121 18
-228 32 -237 32 -9 0 -30 -11 -45 -24z"/>
<path d="M7066 6048 c-9 -46 6 -53 39 -18 25 26 27 32 15 40 -29 19 -47 11
-54 -22z"/>
<path d="M6600 5981 c0 -11 5 -23 11 -27 6 -3 75 -15 152 -25 78 -10 158 -21
177 -25 28 -4 40 -1 60 18 l24 23 -44 7 c-25 5 -103 15 -175 23 -71 8 -147 18
-167 21 -33 5 -38 3 -38 -15z"/>
<path d="M7590 5993 c-15 -6 -49 -43 -50 -54 0 -4 39 -11 87 -18 l87 -11 23
28 c28 34 28 41 1 46 -45 10 -133 15 -148 9z"/>
<path d="M4927 5943 c-40 -32 -45 -39 -30 -44 10 -4 135 -19 278 -34 143 -14
312 -32 375 -40 63 -7 145 -16 183 -20 l67 -7 0 36 c0 20 1 39 3 43 4 11 -45
20 -175 32 -68 7 -199 23 -293 36 -93 13 -213 26 -265 29 l-95 6 -48 -37z"/>
<path d="M7790 5953 c-42 -29 -51 -41 -57 -77 l-5 -33 68 -16 c38 -9 96 -19
129 -23 33 -4 90 -12 127 -19 83 -16 96 -7 66 44 -35 60 -70 92 -126 117 -65
30 -164 33 -202 7z"/>
<path d="M8080 5923 c0 -2 14 -21 30 -42 26 -32 37 -38 73 -39 23 -1 57 -6 75
-11 56 -17 66 -4 31 39 -24 30 -39 39 -72 43 -82 11 -137 15 -137 10z"/>
<path d="M6600 5871 c0 -23 1 -41 3 -41 1 0 123 -16 272 -34 148 -19 272 -33
274 -30 2 2 -3 14 -12 28 -13 19 -30 26 -89 36 -40 6 -77 17 -83 24 -6 7 -74
20 -160 30 -82 9 -162 20 -177 22 -27 5 -28 4 -28 -35z"/>
<path d="M7463 5887 c-76 -39 -60 -48 130 -71 97 -11 98 -11 103 11 13 49 -1
60 -88 68 -44 3 -86 8 -92 10 -6 2 -30 -7 -53 -18z"/>
<path d="M4780 5848 c-111 -49 -131 -58 -138 -58 -4 0 -41 -14 -82 -31 -41
-17 -86 -35 -100 -39 -14 -5 -83 -32 -155 -60 -71 -28 -177 -70 -235 -92 -58
-22 -126 -49 -152 -59 -106 -42 -146 -58 -223 -87 -44 -16 -93 -36 -110 -43
-16 -6 -57 -22 -90 -33 -58 -21 -60 -23 -63 -60 -3 -39 -3 -39 20 -24 13 8 66
29 118 47 52 18 102 35 110 38 8 3 62 23 120 44 58 20 175 63 260 94 85 31
178 63 205 72 28 8 64 21 80 28 17 7 95 36 175 65 80 28 161 57 180 65 19 7
57 22 83 32 l48 18 -3 44 c-3 49 -11 55 -48 39z"/>
<path d="M4860 5812 l0 -48 223 -23 c122 -12 281 -28 352 -36 72 -8 166 -17
210 -20 44 -3 97 -8 118 -11 l37 -6 0 45 c0 54 20 48 -265 77 -110 11 -298 32
-418 45 -120 14 -227 25 -237 25 -17 0 -20 -7 -20 -48z"/>
<path d="M7335 5845 c-22 -7 -68 -21 -102 -30 -35 -10 -63 -20 -63 -22 0 -2 5
-13 10 -24 8 -15 17 -18 38 -13 15 4 32 10 37 14 6 4 40 19 78 35 37 15 67 34
67 42 0 15 -11 15 -65 -2z"/>
<path d="M8166 5812 c-3 -6 -3 -24 0 -41 7 -35 14 -37 114 -44 36 -3 72 -8 80
-11 8 -3 21 -2 29 3 12 8 7 16 -21 44 -30 29 -44 35 -99 40 -35 3 -72 9 -81
12 -9 4 -19 2 -22 -3z"/>
<path d="M7429 5799 c-6 -3 -9 -21 -7 -40 l3 -34 128 -14 c98 -11 127 -17 127
-29 0 -12 -14 -13 -82 -8 -46 4 -100 11 -121 17 -20 5 -42 7 -47 4 -12 -7 -14
-72 -2 -78 4 -3 45 -8 92 -11 89 -7 160 -24 160 -37 0 -8 -81 -4 -192 10 -32
4 -60 5 -63 3 -3 -3 -5 -22 -5 -43 l0 -37 58 -6 c31 -3 88 -8 127 -12 38 -3
73 -10 76 -16 11 -18 16 34 15 172 l-1 135 -128 15 c-71 9 -133 13 -138 9z"/>
<path d="M7305 5765 c-82 -34 -95 -46 -76 -69 9 -11 6 -15 -11 -19 -63 -15
-121 -44 -113 -57 5 -7 62 11 140 45 17 7 45 18 63 24 94 32 92 31 92 72 0 22
-3 39 -7 38 -5 0 -44 -16 -88 -34z"/>
<path d="M6600 5781 c0 -13 17 -16 145 -31 55 -6 178 -20 274 -31 161 -19 195
-19 178 -2 -4 3 -121 19 -260 34 -138 15 -271 31 -294 34 -27 4 -43 2 -43 -4z"/>
<path d="M7728 5694 c-1 -38 -1 -87 1 -109 1 -32 -1 -37 -10 -25 -9 12 -9 11
-3 -5 4 -11 9 -108 11 -215 2 -107 5 -200 7 -205 2 -6 41 -12 89 -14 l85 -2 4
308 c2 169 1 311 -2 315 -3 4 -44 10 -92 14 l-88 7 -2 -69z"/>
<path d="M7944 5732 c-6 -4 -10 -18 -8 -32 1 -14 3 -150 3 -302 1 -318 -12
-285 116 -290 l80 -3 5 298 c3 193 1 302 -5 307 -5 5 -45 13 -88 19 -92 13
-89 13 -103 3z"/>
<path d="M4864 5716 c-3 -8 -4 -31 -2 -52 l3 -39 75 -7 c41 -4 230 -21 420
-38 190 -16 366 -32 393 -35 l47 -6 0 45 c0 52 1 52 -120 61 -47 4 -193 18
-325 31 -132 13 -289 29 -350 35 -60 5 -116 12 -123 14 -7 3 -15 -2 -18 -9z"/>
<path d="M4670 5669 c-74 -28 -142 -53 -150 -58 -8 -4 -55 -20 -105 -35 -141
-44 -155 -52 -155 -92 0 -27 4 -34 20 -34 11 0 28 4 38 9 9 6 64 24 122 42 58
17 168 53 245 78 137 45 140 47 141 76 2 36 -5 65 -14 64 -4 -1 -68 -23 -142
-50z"/>
<path d="M8175 5696 c-3 -9 -7 -22 -9 -30 -8 -25 16 -33 109 -41 49 -4 100
-11 112 -16 19 -7 24 -5 29 16 11 42 1 49 -87 63 -46 7 -99 15 -116 18 -25 5
-34 2 -38 -10z"/>
<path d="M6606 5673 c-3 -3 -6 -23 -6 -44 0 -43 -3 -42 180 -60 63 -6 153 -14
200 -19 47 -4 88 -6 93 -3 4 2 7 20 7 39 0 19 -3 34 -7 34 -5 0 -37 5 -73 10
-36 5 -134 16 -219 25 -85 8 -157 18 -161 20 -4 2 -10 2 -14 -2z"/>
<path d="M7340 5673 c-8 -3 -66 -24 -127 -45 -109 -39 -113 -41 -113 -69 0
-24 4 -29 25 -29 15 0 38 6 53 13 15 8 53 20 85 27 32 7 60 17 63 22 3 4 15 8
28 8 36 0 56 21 49 53 -5 27 -26 34 -63 20z"/>
<path d="M8170 5567 l0 -33 118 -11 c64 -7 121 -8 125 -3 5 4 7 18 5 31 -3 22
-10 25 -98 36 -152 18 -150 19 -150 -20z"/>
<path d="M4863 5574 c-2 -7 -3 -29 -1 -50 l3 -39 95 -7 c52 -3 187 -14 300
-22 113 -9 270 -21 350 -27 80 -5 154 -11 165 -12 17 -2 20 4 20 42 0 51 19
44 -175 60 -69 6 -249 22 -400 36 -151 13 -292 26 -314 28 -23 2 -40 -2 -43
-9z"/>
<path d="M4710 5549 c-52 -16 -149 -47 -215 -69 -66 -21 -146 -46 -177 -55
-57 -16 -58 -17 -58 -52 0 -34 1 -35 33 -30 73 11 521 138 529 149 11 17 6 81
-7 84 -5 1 -53 -11 -105 -27z"/>
<path d="M7340 5569 c-28 -12 -110 -35 -185 -53 -46 -11 -50 -15 -53 -44 -4
-39 3 -40 131 -11 184 43 167 35 167 79 0 43 -11 48 -60 29z"/>
<path d="M6600 5511 c0 -47 0 -47 215 -61 82 -6 171 -15 197 -20 64 -13 74 -8
70 39 l-4 39 -81 7 c-45 4 -138 13 -207 21 -69 8 -140 14 -157 14 -32 0 -33
-2 -33 -39z"/>
<path d="M4123 5472 l-73 -27 0 -298 c0 -261 2 -298 16 -304 8 -3 48 -2 87 3
l72 9 3 323 c3 370 14 338 -105 294z"/>
<path d="M8170 5466 l0 -34 116 -12 c124 -13 138 -10 132 31 -3 22 -9 25 -103
36 -153 17 -145 18 -145 -21z"/>
<path d="M7330 5459 c-19 -5 -78 -18 -130 -27 l-95 -18 0 -35 c0 -28 4 -34 20
-33 55 4 267 42 274 50 5 5 7 24 4 42 -6 35 -13 37 -73 21z"/>
<path d="M7420 5433 l0 -41 98 -11 c185 -20 171 -21 178 16 4 19 4 37 0 40 -8
9 -92 21 -193 29 l-83 7 0 -40z"/>
<path d="M4866 5443 c-3 -3 -6 -25 -6 -48 l0 -42 53 -6 c28 -4 198 -16 377
-27 179 -12 364 -24 413 -28 48 -4 91 -4 95 0 4 4 6 25 4 46 l-4 39 -166 12
c-92 7 -214 17 -272 21 -58 5 -172 13 -255 19 -82 6 -169 13 -191 16 -23 2
-44 1 -48 -2z"/>
<path d="M4625 5394 c-88 -24 -205 -57 -260 -72 -95 -26 -100 -28 -103 -56 -2
-16 0 -32 5 -36 4 -5 44 0 88 10 44 10 166 37 270 60 105 24 193 48 197 54 4
6 8 28 8 49 0 48 -1 48 -205 -9z"/>
<path d="M6605 5431 c-3 -2 -5 -21 -5 -42 0 -46 -33 -40 403 -76 l78 -6 -3 44
c-2 36 -7 44 -23 46 -167 12 -324 25 -378 31 -37 5 -70 6 -72 3z"/>
<path d="M3936 5404 c-38 -13 -71 -24 -73 -24 -2 0 -2 -125 -1 -277 l3 -278
70 3 c39 2 71 5 73 7 4 4 5 586 1 590 -2 2 -35 -7 -73 -21z"/>
<path d="M8177 5394 c-4 -4 -7 -20 -7 -35 0 -26 3 -28 58 -34 31 -3 85 -10
120 -14 60 -7 63 -7 68 16 12 44 2 50 -107 58 -56 4 -107 9 -114 11 -6 3 -14
1 -18 -2z"/>
<path d="M7295 5350 c-55 -10 -121 -21 -147 -24 l-47 -7 2 -81 2 -80 125 2
c186 3 175 0 175 46 l0 39 -60 0 c-33 0 -97 -3 -142 -8 -47 -4 -83 -4 -83 1 0
8 89 23 224 37 27 3 52 8 55 11 8 7 9 84 2 83 -3 -1 -51 -10 -106 -19z"/>
<path d="M3750 5340 c-25 -10 -107 -40 -182 -67 -124 -43 -138 -50 -138 -72 0
-18 4 -22 18 -16 27 11 132 45 187 60 89 24 180 58 187 69 4 6 8 19 8 29 0 22
-22 21 -80 -3z"/>
<path d="M7422 5323 l3 -38 60 -8 c33 -4 85 -8 115 -8 30 0 62 -5 71 -10 14
-7 18 -2 23 26 9 44 -1 60 -39 61 -16 0 -76 4 -133 8 l-103 7 3 -38z"/>
<path d="M4775 5299 c-37 -11 -322 -76 -430 -98 l-80 -17 -3 -37 c-2 -25 1
-37 10 -37 12 0 102 16 428 75 52 9 102 20 110 24 17 9 22 77 6 90 -6 4 -24 4
-41 0z"/>
<path d="M4862 5263 l3 -48 75 -7 c115 -10 642 -39 760 -41 l105 -2 -4 40 c-1
22 -4 41 -4 41 -1 1 -148 12 -327 24 -179 12 -374 26 -435 30 -60 5 -125 9
-143 9 l-33 1 3 -47z"/>
<path d="M6602 5269 l3 -44 60 -3 c33 -1 121 -7 196 -12 74 -6 154 -10 177
-10 l42 0 0 39 0 38 -87 7 c-49 4 -101 9 -118 11 -16 2 -85 7 -153 11 l-123 7
3 -44z"/>
<path d="M8172 5258 l3 -33 110 -8 c60 -4 115 -5 123 -2 22 8 10 48 -18 55
-14 4 -69 10 -123 14 l-98 6 3 -32z"/>
<path d="M3805 5264 c-5 -1 -82 -25 -170 -52 -88 -28 -170 -53 -182 -57 -21
-6 -34 -45 -15 -45 8 0 142 36 267 70 44 13 90 25 103 27 15 4 22 13 22 29 0
24 -8 33 -25 28z"/>
<path d="M7425 5251 c-3 -2 -5 -21 -5 -41 l0 -36 131 -13 c141 -14 149 -12
149 34 0 32 -12 40 -65 42 -27 1 -85 6 -128 11 -42 4 -80 6 -82 3z"/>
<path d="M6604 5191 c-2 -2 -4 -21 -4 -42 0 -37 1 -38 43 -43 23 -3 98 -8 167
-11 69 -3 158 -8 198 -11 69 -6 72 -6 72 15 0 11 5 21 11 21 6 0 9 -6 6 -14
-3 -8 0 -21 6 -30 10 -13 37 -16 150 -17 76 0 141 2 144 5 3 3 7 22 8 42 l2
37 -163 -5 c-150 -5 -164 -4 -164 12 0 15 -17 18 -132 25 -73 4 -180 10 -236
14 -57 3 -106 4 -108 2z"/>
<path d="M8174 5176 c-3 -8 -4 -23 -2 -33 3 -15 19 -19 113 -26 60 -4 115 -5
123 -2 7 3 12 15 10 27 -3 21 -11 24 -98 35 -128 15 -140 15 -146 -1z"/>
<path d="M3710 5148 c-36 -10 -112 -32 -170 -47 -75 -20 -106 -33 -108 -44 -2
-12 4 -17 20 -17 30 -1 308 59 330 71 10 5 25 9 33 9 9 0 15 9 15 25 0 21 -5
25 -27 24 -16 -1 -57 -10 -93 -21z"/>
<path d="M4705 5150 c-55 -10 -167 -30 -250 -44 -184 -32 -195 -36 -195 -76 0
-24 4 -30 23 -30 21 0 335 41 469 61 l66 10 4 39 c4 42 0 61 -10 59 -4 -1 -52
-10 -107 -19z"/>
<path d="M4860 5125 c0 -28 5 -47 13 -50 9 -3 878 -46 922 -45 6 0 9 19 7 45
-3 38 -7 45 -26 45 -11 0 -199 11 -416 25 -217 14 -419 25 -447 25 l-53 0 0
-45z"/>
<path d="M7426 5143 c-9 -9 -7 -71 2 -77 5 -3 87 -10 183 -15 96 -6 309 -18
475 -27 165 -10 309 -14 318 -11 11 4 16 15 14 29 -3 20 -11 24 -58 30 -87 10
-190 9 -190 -2 0 -13 -73 -13 -214 0 -61 5 -146 12 -189 16 -58 4 -77 9 -74
19 5 12 -57 22 -189 29 -28 2 -56 6 -61 9 -6 4 -13 4 -17 0z"/>
<path d="M3736 5065 c-26 -8 -106 -26 -177 -41 -107 -23 -129 -31 -129 -46 0
-24 21 -23 225 15 169 32 170 32 173 60 4 32 -12 34 -92 12z"/>
<path d="M6602 5029 l3 -44 105 -3 c58 -2 161 -6 230 -11 81 -5 130 -4 138 3
9 6 16 6 20 -1 4 -6 71 -13 157 -17 178 -7 263 -11 755 -31 206 -9 381 -18
387 -20 17 -6 30 45 14 54 -11 7 -102 14 -526 42 -88 5 -216 14 -285 19 -69 5
-209 12 -312 16 l-188 7 0 -27 c0 -14 -4 -26 -10 -26 -5 0 -10 14 -10 30 0 17
-3 30 -7 30 -5 0 -39 2 -78 4 -38 2 -143 7 -233 11 l-163 8 3 -44z"/>
<path d="M4864 5031 c-10 -10 -3 -92 9 -95 32 -10 922 -35 927 -26 7 12 4 69
-4 78 -4 3 -140 12 -304 19 -163 7 -371 16 -460 20 -90 5 -166 6 -168 4z"/>
<path d="M4680 5014 c-47 -7 -157 -23 -244 -34 -88 -12 -163 -23 -168 -26 -4
-3 -8 -21 -8 -41 l0 -36 53 7 c28 4 124 14 212 22 88 8 190 17 228 21 71 6 69
4 70 68 1 26 -3 30 -29 32 -16 0 -67 -5 -114 -13z"/>
<path d="M3760 4980 c-64 -15 -274 -52 -302 -53 -22 -2 -28 -7 -28 -24 0 -28
-9 -28 206 2 97 14 181 25 186 25 16 0 4 55 -12 56 -8 1 -31 -2 -50 -6z"/>
<path d="M6604 4947 c-3 -8 -4 -30 -2 -47 l3 -33 90 -3 c160 -5 331 -13 341
-15 32 -6 44 2 44 31 0 17 5 30 11 30 6 0 9 -13 7 -30 l-3 -31 125 -4 c282 -9
814 -27 996 -33 184 -7 195 -6 200 12 12 39 -12 44 -261 55 -520 24 -655 31
-775 41 -156 12 -278 15 -287 7 -3 -4 -12 -2 -18 3 -8 6 -105 13 -231 16 -119
3 -221 7 -226 10 -4 3 -11 -1 -14 -9z"/>
<path d="M4799 4896 c-2 -2 -87 -12 -189 -21 -102 -9 -219 -20 -261 -23 -48
-5 -82 -13 -92 -23 -12 -12 -59 -19 -215 -29 -110 -7 -207 -10 -216 -7 -9 4
-101 -1 -206 -10 -180 -16 -190 -18 -190 -37 l0 -21 427 21 c236 12 536 27
668 34 322 15 304 11 301 60 -2 37 -16 67 -27 56z"/>
<path d="M4866 4892 c-3 -3 -6 -24 -6 -48 l0 -42 143 -6 c305 -13 790 -25 798
-20 6 3 6 46 0 85 -1 4 -47 7 -103 8 -109 1 -620 18 -750 25 -42 2 -79 1 -82
-2z"/>
<path d="M3630 4869 c-74 -10 -150 -19 -167 -21 -27 -2 -33 -6 -33 -25 0 -21
3 -22 68 -17 37 3 100 10 140 15 40 5 93 9 117 9 59 0 75 8 75 36 0 29 -8 29
-200 3z"/>
<path d="M6598 4800 c-2 -23 1 -45 7 -50 6 -5 114 -10 240 -12 l230 -3 3 43
c2 23 2 42 0 43 -2 0 -88 2 -193 4 -104 3 -211 7 -236 10 l-47 5 -4 -40z"/>
<path d="M7102 4777 l3 -42 355 -7 c195 -4 489 -11 653 -15 165 -5 301 -4 304
0 3 5 2 18 -1 31 -5 22 -8 23 -198 29 -404 14 -966 37 -1041 41 l-78 5 3 -42z"/>
<path d="M4620 4749 c-69 -5 -309 -17 -535 -29 -722 -36 -655 -30 -655 -54 l0
-21 547 6 c302 3 614 7 696 8 l147 1 0 50 0 50 -37 -1 c-21 -1 -94 -6 -163
-10z"/>
<path d="M4860 4716 l0 -44 183 -6 c100 -3 311 -9 469 -12 267 -6 288 -5 294
11 4 10 3 29 -2 44 l-9 26 -235 6 c-129 4 -340 10 -467 13 l-233 7 0 -45z"/>
<path d="M6600 4679 l0 -36 138 -8 c126 -7 205 -8 305 -6 36 1 37 2 37 36 0
20 -6 38 -12 40 -7 2 -115 5 -241 7 l-227 3 0 -36z"/>
<path d="M7104 4701 c-2 -2 -4 -19 -4 -38 l0 -33 213 -2 c116 -2 266 -3 332
-3 66 0 229 -2 362 -4 174 -3 247 0 257 8 7 6 44 14 80 18 37 3 63 9 59 13 -4
4 -228 13 -498 20 -269 7 -559 15 -643 19 -85 3 -156 4 -158 2z"/>
<path d="M4868 4624 c-5 -4 -8 -29 -8 -57 l0 -49 103 6 c56 3 129 8 163 12 42
4 78 1 114 -10 40 -12 98 -16 228 -16 168 0 175 1 217 25 24 14 60 27 81 28
29 1 40 7 42 21 2 10 0 22 -5 26 -11 10 -926 24 -935 14z"/>
<path d="M3578 4612 c-135 -2 -148 -4 -148 -21 0 -16 14 -19 143 -24 131 -6
146 -5 182 13 22 11 48 20 58 20 10 0 16 4 12 10 -3 5 -27 8 -53 7 -26 -1
-113 -3 -194 -5z"/>
<path d="M3915 4610 l-30 -6 34 -8 c18 -5 48 -17 66 -28 30 -17 55 -19 242
-20 114 -1 232 2 261 6 39 6 65 4 95 -7 23 -9 86 -19 140 -23 l97 -6 0 52 0
52 -437 -3 c-241 -2 -451 -6 -468 -9z"/>
<path d="M6594 4597 c-3 -8 -4 -30 -2 -49 l3 -33 148 -3 148 -3 49 42 c28 23
48 44 45 47 -3 3 -90 7 -195 10 -164 4 -191 2 -196 -11z"/>
<path d="M7185 4591 c-5 -5 21 -31 31 -31 4 0 17 -8 28 -19 36 -32 119 -71
154 -71 46 0 89 21 142 69 32 29 40 42 30 45 -17 6 -380 13 -385 7z"/>
<path d="M7885 4570 c4 -6 30 -24 58 -40 80 -46 156 -40 228 19 10 8 16 18 13
23 -3 4 -73 8 -155 8 -100 0 -148 -3 -144 -10z"/>
<path d="M3447 4528 c-19 -12 58 -38 112 -38 57 0 109 16 95 29 -11 11 -192
19 -207 9z"/>
<path d="M4060 4501 c0 -5 9 -13 20 -16 11 -3 20 -10 20 -15 0 -28 133 -39
179 -16 60 32 56 43 -16 49 -99 10 -203 8 -203 -2z"/>
<path d="M4690 4482 c0 -18 83 -82 107 -82 20 0 23 5 23 40 l0 40 -42 0 c-24
0 -53 3 -65 6 -13 4 -23 2 -23 -4z"/>
<path d="M6630 4483 c0 -2 16 -10 36 -18 46 -19 134 -20 160 -1 17 13 7 15
-89 18 -59 2 -107 2 -107 1z"/>
<path d="M4860 4440 c0 -53 23 -53 81 0 l44 39 -62 1 -63 0 0 -40z"/>
<path d="M5330 4470 c0 -18 102 -60 145 -60 41 0 115 35 123 58 3 9 -28 12
-132 12 -88 0 -136 -4 -136 -10z"/>
<path d="M5190 9524 c0 -9 7 -14 17 -12 25 5 28 28 4 28 -12 0 -21 -6 -21 -16z"/>
<path d="M5505 9400 c-3 -5 -1 -10 4 -10 6 0 11 5 11 10 0 6 -2 10 -4 10 -3 0
-8 -4 -11 -10z"/>
<path d="M5439 9398 c-6 -25 -9 -437 -3 -441 5 -3 8 65 6 154 -3 156 -3 159
18 159 33 0 60 19 60 40 0 11 -7 21 -15 21 -8 1 -19 3 -25 4 -5 1 -14 3 -20 4
-5 0 -10 6 -10 11 0 6 17 10 38 11 31 0 33 2 16 9 -12 5 -25 13 -29 19 -5 9
-34 16 -36 9z"/>
<path d="M5460 8930 c0 -5 5 -10 10 -10 6 0 10 5 10 10 0 6 -4 10 -10 10 -5 0
-10 -4 -10 -10z"/>
<path d="M4813 8760 c0 -25 2 -35 4 -22 2 12 2 32 0 45 -2 12 -4 2 -4 -23z"/>
<path d="M4765 8760 c-3 -5 3 -10 14 -10 12 0 21 5 21 10 0 6 -6 10 -14 10 -8
0 -18 -4 -21 -10z"/>
<path d="M4705 8740 c-3 -5 -1 -10 4 -10 6 0 11 5 11 10 0 6 -2 10 -4 10 -3 0
-8 -4 -11 -10z"/>
<path d="M4480 8639 c0 -6 11 -8 29 -4 19 4 34 1 44 -10 10 -9 18 -11 22 -5 7
12 -36 30 -71 30 -13 0 -24 -5 -24 -11z"/>
<path d="M4436 8615 c-3 -8 -15 -15 -26 -15 -11 0 -20 -5 -20 -11 0 -5 4 -8 8
-5 4 2 8 -4 8 -14 0 -18 -2 -18 -29 -2 -23 14 -29 15 -36 3 -5 -7 -13 -11 -17
-9 -5 3 -18 2 -29 -2 -15 -5 -9 -7 20 -8 22 0 52 -5 65 -10 19 -7 31 -6 45 4
10 8 27 14 37 14 10 0 18 7 18 15 0 8 8 15 18 15 9 0 24 5 32 11 11 8 8 9 -17
5 -22 -4 -33 -1 -37 9 -7 19 -32 19 -40 0z"/>
<path d="M4320 8520 c0 -5 6 -10 14 -10 8 0 18 5 21 10 3 6 -3 10 -14 10 -12
0 -21 -4 -21 -10z"/>
<path d="M4240 8270 c0 -5 7 -10 16 -10 8 0 12 5 9 10 -3 6 -10 10 -16 10 -5
0 -9 -4 -9 -10z"/>
<path d="M4290 8244 c24 -4 30 -10 30 -30 0 -14 -4 -22 -10 -19 -5 3 -18 1
-27 -5 -16 -9 -15 -10 5 -5 13 4 22 2 22 -4 0 -6 -9 -11 -19 -11 -11 0 -23 -5
-26 -10 -4 -6 -11 -8 -16 -5 -5 4 -9 -26 -9 -70 0 -76 0 -77 30 -88 25 -10 30
-17 31 -47 l1 -35 8 30 7 30 5 -30 c3 -16 5 44 4 135 l-1 165 -32 3 c-33 2
-33 2 -3 -4z"/>
<path d="M4233 7880 c0 -25 2 -35 4 -22 2 12 2 32 0 45 -2 12 -4 2 -4 -23z"/>
<path d="M2415 3510 c-3 -5 -7 -53 -8 -105 -2 -112 -4 -110 108 -103 78 5 95
19 102 81 9 76 -3 114 -39 126 -39 14 -155 14 -163 1z"/>
<path d="M2642 3290 c0 -14 2 -19 5 -12 2 6 2 18 0 25 -3 6 -5 1 -5 -13z"/>
<path d="M2410 3280 c8 -5 20 -10 25 -10 6 0 3 5 -5 10 -8 5 -19 10 -25 10 -5
0 -3 -5 5 -10z"/>
<path d="M2523 3263 c9 -2 23 -2 30 0 6 3 -1 5 -18 5 -16 0 -22 -2 -12 -5z"/>
<path d="M2408 3233 c7 -3 16 -2 19 1 4 3 -2 6 -13 5 -11 0 -14 -3 -6 -6z"/>
<path d="M2340 3020 c36 -12 60 -12 60 0 0 6 -19 10 -42 9 -37 -1 -39 -2 -18
-9z"/>
<path d="M4125 3444 c-11 -50 -47 -168 -57 -188 -5 -10 -6 -22 -1 -27 11 -10
130 -16 139 -6 8 8 -52 226 -66 241 -5 5 -12 -3 -15 -20z"/>
<path d="M7872 3496 c-5 -13 -16 -49 -23 -80 -8 -31 -17 -56 -20 -56 -4 0 -10
-17 -14 -37 -4 -21 -11 -43 -15 -48 -5 -6 -10 -24 -12 -40 l-3 -30 99 -3 c55
-1 103 1 108 6 7 7 -15 88 -41 147 -4 11 -18 53 -30 93 -12 39 -26 72 -30 72
-4 0 -13 -11 -19 -24z"/>
<path d="M5540 2672 c-25 -7 -40 -34 -40 -72 0 -44 24 -80 54 -80 35 0 46 20
46 80 0 49 -3 58 -22 67 -13 5 -30 8 -38 5z"/>
<path d="M3214 2633 c3 -34 6 -38 33 -41 40 -4 60 20 45 53 -9 20 -19 25 -46
25 -33 0 -34 -1 -32 -37z"/>
<path d="M3520 2632 c0 -37 1 -39 30 -37 37 2 40 5 43 41 2 27 -1 29 -35 32
-38 3 -38 3 -38 -36z"/>
<path d="M3826 2658 c-9 -12 -16 -38 -16 -58 0 -48 24 -80 60 -80 36 0 50 23
50 84 0 35 -5 48 -22 60 -31 22 -54 20 -72 -6z"/>
<path d="M6182 2611 c-12 -34 -8 -41 26 -41 19 0 23 4 17 18 -4 9 -10 25 -12
35 -8 25 -20 21 -31 -12z"/>
<path d="M7206 2624 c-11 -30 -6 -52 14 -57 27 -7 32 4 19 42 -12 34 -24 40
-33 15z"/>
</g>
</svg>
