<?xml version="1.0" standalone="no"?>
<!DOCTYPE svg PUBLIC "-//W3C//DTD SVG 20010904//EN"
 "http://www.w3.org/TR/2001/REC-SVG-20010904/DTD/svg10.dtd">
<svg version="1.0" xmlns="http://www.w3.org/2000/svg"
 width="500.000000pt" height="500.000000pt" viewBox="0 0 500.000000 500.000000"
 preserveAspectRatio="xMidYMid meet">

<g transform="translate(0.000000,500.000000) scale(0.100000,-0.100000)"
fill="#000000" stroke="none">
<path d="M2350 4994 c-369 -32 -652 -108 -948 -254 -764 -376 -1274 -1095
-1383 -1950 -16 -124 -16 -448 0 -575 20 -165 58 -337 106 -482 25 -76 49
-144 54 -152 7 -10 69 28 262 161 l254 173 3 628 2 627 -105 0 c-94 0 -105 -2
-115 -20 -6 -12 -21 -20 -36 -20 l-25 0 3 -670 c2 -369 0 -670 -3 -670 -19 0
-88 294 -109 460 -14 120 -12 406 4 530 55 407 210 772 464 1094 71 91 257
277 348 348 331 261 717 421 1133 469 168 19 476 7 646 -25 834 -158 1510
-789 1725 -1609 54 -206 65 -299 65 -562 -1 -308 -11 -374 -122 -746 -3 -11
31 -40 115 -97 66 -45 123 -82 125 -82 9 0 66 168 97 283 86 323 108 703 59
1017 -67 433 -254 858 -526 1195 -164 204 -411 422 -633 560 -214 132 -535
263 -770 314 -198 42 -532 69 -690 55z"/>
<path d="M2764 4575 c-3 -14 -12 -25 -20 -25 -8 0 -14 -6 -14 -14 0 -8 -9 -18
-20 -21 -11 -3 -20 -13 -20 -21 0 -8 -11 -19 -25 -24 -14 -5 -25 -16 -25 -25
0 -8 -4 -15 -10 -15 -5 0 -10 -6 -10 -14 0 -8 -6 -16 -12 -18 -13 -5 -36 -90
-45 -165 -3 -24 -9 -43 -14 -43 -5 0 -9 -15 -9 -34 0 -21 -6 -36 -15 -40 -13
-5 -15 -46 -15 -286 0 -180 -4 -280 -10 -280 -6 0 -10 -75 -10 -205 0 -137 4
-205 10 -205 6 0 73 -42 148 -93 75 -52 143 -97 150 -101 9 -6 12 162 12 823
0 822 0 831 -20 831 -13 0 -22 -9 -26 -25z"/>
<path d="M1813 4323 c-18 -3 -23 -12 -24 -36 -3 -111 -14 -1623 -12 -1626 2
-3 66 38 143 90 l139 94 1 628 0 627 -24 0 c-17 0 -47 26 -111 95 l-87 95 111
0 c104 0 111 1 111 20 0 19 -6 20 -112 19 -62 -1 -123 -4 -135 -6z"/>
<path d="M3402 3978 c-56 -17 -66 -24 -95 -68 -32 -50 -53 -60 -75 -38 -6 6
-15 8 -19 4 -5 -4 -8 -278 -8 -609 l0 -602 129 -88 c71 -48 130 -86 132 -84 2
2 3 341 2 753 l-3 750 -63 -18z"/>
<path d="M1285 3895 c-19 -19 -35 -41 -35 -50 0 -8 -9 -15 -20 -15 -11 0 -20
-7 -20 -15 0 -8 -9 -15 -20 -15 -11 0 -20 -7 -20 -15 0 -8 -9 -15 -20 -15 -19
0 -20 -7 -20 -101 0 -99 0 -101 -30 -129 l-30 -28 2 -669 3 -669 147 100 147
101 1 778 0 777 -25 0 c-16 0 -39 -13 -60 -35z"/>
<path d="M4060 3295 c-8 -21 -16 -25 -49 -25 -40 0 -40 0 -43 -42 -2 -36 -7
-44 -25 -46 -19 -3 -23 -10 -23 -38 0 -22 -6 -37 -15 -40 -13 -5 -15 -65 -15
-458 l1 -451 155 -105 c85 -58 160 -106 165 -108 5 -2 9 257 9 667 l0 671 -75
0 c-71 0 -76 -1 -85 -25z"/>
<path d="M1550 2368 c-514 -352 -1072 -733 -1240 -847 -282 -192 -305 -211
-308 -240 l-3 -31 423 0 424 0 827 565 826 565 588 -402 c323 -221 696 -475
827 -565 l239 -163 424 0 423 0 0 29 c0 27 -23 44 -292 229 -161 110 -722 493
-1246 851 -525 358 -959 651 -965 650 -7 0 -433 -289 -947 -641z"/>
<path d="M420 1120 c63 -117 343 -425 511 -559 821 -662 1961 -739 2860 -195
252 152 533 408 708 644 l93 125 -178 3 -179 3 -54 -63 c-348 -403 -815 -667
-1337 -755 -150 -25 -543 -25 -689 0 -516 90 -979 346 -1308 724 l-81 93 -178
0 c-176 0 -179 0 -168 -20z"/>
</g>
</svg>
